<svg width="32" height="32" viewBox="0 0 32 32" fill="none" xmlns="http://www.w3.org/2000/svg">
<path d="M15.9809 0C18.1931 0 20.2718 0.419547 22.2169 1.25864C24.1621 2.09774 25.8594 3.24195 27.3087 4.6913C28.758 6.14064 29.9023 7.83155 30.7414 9.764C31.5805 11.6965 32 13.7688 32 15.9809C32 18.1931 31.5805 20.2718 30.7414 22.2169C29.9023 24.1621 28.758 25.8594 27.3087 27.3087C25.8594 28.758 24.1621 29.9023 22.2169 30.7414C20.2718 31.5805 18.1931 32 15.9809 32C13.7688 32 11.6965 31.5805 9.764 30.7414C7.83155 29.9023 6.14064 28.758 4.6913 27.3087C3.24195 25.8594 2.09774 24.1621 1.25864 22.2169C0.419547 20.2718 0 18.1931 0 15.9809C0 13.7688 0.419547 11.6965 1.25864 9.764C2.09774 7.83155 3.24195 6.14064 4.6913 4.6913C6.14064 3.24195 7.83155 2.09774 9.764 1.25864C11.6965 0.419547 13.7688 0 15.9809 0ZM22.0072 6.97974H18.6126C17.9515 6.97974 17.3413 7.09416 16.7819 7.323C16.2225 7.55185 15.733 7.85697 15.3135 8.23838C14.8939 8.61979 14.5697 9.05205 14.3409 9.53516C14.112 10.0183 13.9976 10.5014 13.9976 10.9845V13.006H10.9845V16.9726H13.9976V24.9821H18.0024V16.9726H20.9774V13.006H18.0024V11.9762C18.0024 11.671 18.1232 11.4295 18.3647 11.2515C18.6063 11.0735 18.8161 10.9845 18.994 10.9845H22.0072V6.97974Z" fill="black"/>
</svg>
