<svg width="240" height="54" viewBox="0 0 240 54" fill="none" xmlns="http://www.w3.org/2000/svg">
<g clip-path="url(#clip0_2006_3406)">
<path d="M101.982 24.1508H87.4171V24.4233C87.4171 26.063 87.4171 27.7028 87.4171 29.3426C87.4171 29.7092 87.4267 29.7188 87.7896 29.7188C90.1355 29.7188 92.4813 29.7188 94.8271 29.7188H95.2045V30.5074C95.2045 33.3215 93.3586 35.8873 90.6931 36.7868C88.8568 37.4065 86.9893 37.4958 85.1025 37.1075C82.5212 36.5746 80.7329 35.0626 79.7331 32.6174C79.125 31.1271 78.8991 29.5669 78.9063 27.9633C78.9159 25.6869 78.9111 23.4104 78.9063 21.134C78.9039 19.3592 79.2932 17.6784 80.1104 16.1061C80.8507 14.6834 81.9395 13.6247 83.4297 13.005C84.8766 12.4021 86.3908 12.2599 87.9411 12.3201C89.8014 12.3901 91.455 12.9664 92.8394 14.2373C94.1662 15.4575 94.9208 16.955 94.9665 18.7804C94.9713 19.0047 95.0338 19.0746 95.2646 19.0722C97.245 19.0626 99.2255 19.0674 101.206 19.0674C101.281 19.0674 101.357 19.0602 101.43 19.0553C101.567 18.221 101.446 17.4204 101.266 16.6174C100.365 12.5926 97.9925 9.764 94.2839 8.07356C91.8828 6.97876 89.3303 6.56399 86.6912 6.6508C85.1314 6.70144 83.5979 6.91124 82.0933 7.32119C79.6562 7.98434 77.5435 9.20936 75.8394 11.0879C73.9334 13.1883 72.8518 15.6914 72.3543 18.4718C72.0947 19.9187 72.0539 21.3824 72.0491 22.8437C72.0419 24.9441 72.0106 27.0493 72.15 29.1425C72.3062 31.5129 72.9143 33.7918 74.0945 35.8801C75.3755 38.1469 77.1589 39.9072 79.4759 41.1033C81.8241 42.3163 84.355 42.7383 86.958 42.7889C88.5708 42.8203 90.1667 42.6659 91.741 42.2343C94.5171 41.4747 96.9254 40.1291 98.7857 37.9009C100.314 36.0706 101.273 33.9606 101.663 31.5998C101.968 29.7502 102.002 27.8837 101.98 26.0148C101.973 25.3999 101.98 24.785 101.98 24.1532L101.982 24.1508Z" fill="white"/>
<path d="M145.676 16.4271H139.162V19.3619C139.047 19.2244 138.987 19.1424 138.917 19.0677C138.564 18.6891 138.235 18.284 137.848 17.9415C136.057 16.3548 133.86 15.8701 131.567 15.7254C130.459 15.6555 129.373 15.9304 128.303 16.1908C124.638 17.0806 122.405 19.4776 121.256 23.0008C120.86 24.2186 120.852 25.487 120.824 26.7434C120.79 28.2457 120.831 29.7504 120.845 31.2552C120.845 31.465 120.855 31.682 120.903 31.8846C121.054 32.5092 121.227 33.1289 121.391 33.7486C122.126 36.5556 123.84 38.5643 126.409 39.84C128.101 40.6816 129.93 40.9324 131.8 40.9468C132.658 40.9541 133.468 40.6985 134.278 40.4742C135.793 40.0546 137.139 39.3239 138.218 38.1471C138.415 37.9325 138.643 37.7444 138.905 37.496C138.915 37.6528 138.924 37.7444 138.924 37.8361C138.924 38.9936 138.927 40.1511 138.924 41.3086C138.924 41.569 138.907 41.827 138.883 42.0875C138.698 44.1661 137.143 45.6058 135.305 46.0977C133.882 46.4787 132.456 46.3943 131.031 46.1194C129.666 45.8542 128.532 45.2296 127.743 44.0383C127.652 43.9009 127.412 43.7948 127.238 43.7948C125.316 43.7779 123.393 43.7827 121.47 43.7851C121.362 43.7851 121.251 43.8141 121.131 43.8334C121.143 43.9033 121.146 43.9395 121.155 43.9756C121.636 45.7336 122.552 47.2118 123.943 48.391C125.263 49.5075 126.784 50.2454 128.428 50.7277C130.555 51.3499 132.73 51.4777 134.922 51.2727C137.569 51.0243 140.023 50.2286 142.138 48.5405C144.065 47.0044 145.27 45.0391 145.546 42.5722C145.669 41.475 145.669 40.3633 145.669 39.2564C145.678 31.752 145.673 24.2475 145.673 16.743V16.4295L145.676 16.4271ZM138.831 31.1274C138.415 33.3001 137.107 34.7253 134.978 35.3595C133.442 35.8177 131.928 35.7598 130.45 35.1376C128.693 34.3949 127.806 32.9842 127.512 31.1563C127.282 29.7119 127.395 28.2553 127.412 26.8012C127.421 26.0103 127.512 25.2265 127.772 24.4742C128.298 22.9525 129.332 21.9446 130.849 21.4309C132.19 20.9776 133.55 20.8907 134.922 21.2742C136.869 21.8167 138.112 23.0972 138.677 25.0168C138.857 25.6244 138.893 26.2828 138.944 26.9218C138.984 27.4282 138.951 27.9418 138.951 28.4531C138.965 28.4531 138.982 28.4531 138.996 28.4555C138.946 29.3477 138.994 30.2593 138.826 31.1274H138.831Z" fill="white"/>
<path d="M219.608 28.2289C219.666 26.8158 219.587 25.4244 219.279 24.0426C218.709 21.4889 217.433 19.3957 215.313 17.8476C213.306 16.3814 210.984 15.8485 208.571 15.7351C206.802 15.6507 205.055 15.9256 203.368 16.5237C202.002 17.0084 200.741 17.6667 199.7 18.6844C197.433 20.8981 196.328 23.6182 196.294 26.7796C196.275 28.5641 196.265 30.3486 196.304 32.1331C196.321 32.8782 196.4 33.6378 196.571 34.3612C197.39 37.8145 199.404 40.2814 202.709 41.6222C204.791 42.4662 206.975 42.7387 209.199 42.5916C212.366 42.3842 215.104 41.1784 217.286 38.82C218.366 37.6529 219.01 36.2494 219.406 34.6892C219.267 34.6723 219.147 34.6482 219.027 34.6458C217.421 34.6337 215.818 34.6337 214.212 34.6096C213.772 34.6024 213.503 34.7688 213.304 35.1643C212.857 36.0444 212.201 36.7414 211.309 37.1802C209.814 37.9157 208.225 38.0339 206.624 37.6963C205.19 37.3925 204.057 36.6015 203.368 35.2607C202.803 34.1611 202.728 32.9578 202.668 31.7545C202.659 31.5688 202.772 31.494 202.94 31.4964C203.228 31.5013 203.514 31.5206 203.803 31.5206C208.965 31.5206 214.128 31.5206 219.289 31.5206H219.625C219.625 31.3903 219.625 31.2866 219.625 31.1829C219.615 30.1991 219.567 29.2152 219.606 28.2361L219.608 28.2289ZM202.623 26.7217C202.7 26.0055 202.75 25.3086 202.853 24.6214C203.01 23.5917 203.416 22.6681 204.134 21.9012C204.94 21.0428 205.959 20.6087 207.103 20.464C208.319 20.3121 209.528 20.3748 210.658 20.8788C212.191 21.5612 213.015 22.8272 213.328 24.4357C213.472 25.176 213.53 25.9332 213.631 26.7242H202.62L202.623 26.7217Z" fill="white"/>
<path d="M59.8452 25.5284C57.5138 21.4819 55.1824 17.4355 52.8462 13.3891C50.9041 10.0275 48.9573 6.66835 47.0128 3.30678C46.7268 2.81243 46.4432 2.32049 46.1548 1.82373C46.1163 1.85026 46.1067 1.85508 46.1019 1.86231C43.7825 5.89427 41.4631 9.92623 39.1438 13.9582C38.9611 14.2765 39.0092 14.414 39.3408 14.6069C42.1698 16.2515 44.9987 17.8937 47.8252 19.5407C50.8945 21.3252 53.9614 23.1097 57.0283 24.899C58.057 25.4994 59.0784 26.1071 60.0999 26.7172C60.4701 26.9391 60.4677 27.0235 60.1047 27.2719C60.0879 27.2815 60.0711 27.2911 60.0543 27.3008C58.7996 28.0459 57.5498 28.7959 56.2904 29.5314C50.6397 32.8327 44.9867 36.1291 39.336 39.4256C38.9515 39.6499 38.9443 39.6788 39.1702 40.0719C40.5666 42.4954 41.9655 44.9165 43.3619 47.34C44.2873 48.9436 45.215 50.5497 46.1572 52.1822C46.2173 52.0882 46.2726 52.0134 46.3206 51.9314C47.3565 50.1421 48.3925 48.3552 49.4236 46.5659C52.3751 41.4464 55.3266 36.3245 58.2757 31.2025C58.9847 29.9703 59.6817 28.7284 60.4004 27.5009C60.6023 27.1537 60.6167 26.845 60.4004 26.505C60.2009 26.1891 60.0302 25.8539 59.8428 25.5284H59.8452Z" fill="white"/>
<path d="M170.793 28.8511C169.829 28.1879 168.745 27.8045 167.623 27.5248C164.962 26.8568 162.297 26.2081 159.636 25.5474C159.069 25.4075 158.538 25.1905 158.16 24.7106C157.425 23.7725 157.711 21.9832 158.708 21.296C159.405 20.8161 160.179 20.5629 161.028 20.5412C161.968 20.5171 162.91 20.4399 163.833 20.6955C165.169 21.0669 166.003 21.9109 166.236 23.3047C166.289 23.6206 166.296 23.9461 166.325 24.2717H172.067C172.067 23.9293 172.089 23.611 172.065 23.2975C171.918 21.5033 171.284 19.919 170.034 18.6048C169.022 17.5413 167.774 16.8372 166.39 16.4272C164.477 15.8581 162.53 15.5687 160.513 15.8147C158.788 16.0245 157.098 16.3139 155.557 17.1699C154.019 18.0236 152.81 19.2028 152.106 20.8354C151.52 22.1882 151.507 23.6327 151.649 25.0651C151.909 27.6767 153.399 29.3478 155.815 30.1701C157.182 30.6355 158.605 30.9394 160.011 31.2794C161.838 31.7231 163.676 32.1138 165.501 32.5599C166.88 32.8975 167.568 34.2165 167.104 35.5621C166.787 36.4833 166.111 37.0621 165.244 37.4117C163.268 38.2075 161.275 38.193 159.292 37.4503C158.242 37.0572 157.461 36.3627 157.141 35.2462C157.033 34.8701 156.978 34.4794 156.896 34.0791H151.209C151.195 34.1707 151.169 34.2648 151.166 34.3564C151.101 35.7599 151.433 37.0717 152.113 38.2895C153.046 39.9582 154.529 40.9614 156.266 41.6342C158.136 42.3576 160.09 42.5915 162.076 42.6277C164.448 42.6711 166.707 42.1937 168.808 41.0675C169.918 40.4719 170.906 39.7099 171.69 38.7115C172.988 37.0548 173.488 35.1691 173.25 33.0856C173.048 31.3204 172.283 29.8759 170.803 28.8559L170.793 28.8511Z" fill="white"/>
<path d="M191.714 16.3763C190.156 16.3715 188.601 16.3594 187.044 16.3498C186.573 16.3474 186.546 16.3209 186.546 15.8434C186.546 13.7792 186.546 11.715 186.546 9.65076C186.546 9.51331 186.525 9.37585 186.513 9.24805H179.985C179.98 9.33968 179.973 9.41685 179.97 9.4916C179.961 11.006 179.949 12.518 179.941 14.0324C179.939 14.6015 179.941 15.1706 179.941 15.7397C179.941 16.3618 179.927 16.3787 179.29 16.3763C178.367 16.3739 177.447 16.3763 176.524 16.3522C176.211 16.3426 176.156 16.4704 176.158 16.7429C176.168 18.2958 176.163 19.8488 176.163 21.4018V21.7298H176.516C177.564 21.7298 178.612 21.7346 179.66 21.7249C179.877 21.7249 179.949 21.7949 179.946 22.0047C179.937 22.4363 179.944 22.8704 179.944 23.302C179.944 26.1283 179.944 28.9545 179.944 31.7807C179.944 31.8965 179.963 32.0098 179.963 32.1256C179.963 32.6657 179.977 33.2059 179.961 33.7461C179.92 35.0482 179.915 36.3408 180.288 37.6092C180.84 39.5022 181.996 40.8309 183.833 41.5447C184.994 41.9981 186.217 42.1042 187.448 42.1259C188.765 42.1476 190.082 42.1307 191.399 42.1307H191.714V36.7483C190.873 36.7483 190.055 36.7676 189.241 36.7411C188.794 36.7266 188.344 36.6591 187.904 36.5675C187.347 36.4517 186.998 36.0948 186.801 35.545C186.527 34.7782 186.563 33.9848 186.558 33.2035C186.539 29.5091 186.549 25.8148 186.551 22.1204C186.551 21.7732 186.599 21.7298 186.96 21.7298C188.527 21.7298 190.094 21.7298 191.661 21.7298H192C192.014 21.6381 192.029 21.5827 192.029 21.5272C192.041 19.9067 192.045 18.2886 192.062 16.6681C192.065 16.4053 191.932 16.3739 191.719 16.3739L191.714 16.3763Z" fill="white"/>
<path d="M17.8877 25.6101C18.4838 25.6052 19.0774 25.5835 19.6735 25.5835C22.7019 25.5811 25.7279 25.5763 28.7564 25.5908C29.0856 25.5908 29.2635 25.4654 29.4173 25.1977C30.5181 23.271 31.6285 21.349 32.7366 19.4247C33.4312 18.2165 34.1258 17.0084 34.8204 15.8003C35.0632 15.3782 35.0391 15.2987 34.6233 15.0479C34.6065 15.0382 34.5897 15.0286 34.5728 15.0189C29.4053 11.9974 24.2378 8.97342 19.0702 5.95186C18.5246 5.63355 17.9742 5.32488 17.383 4.98486C17.3733 5.17296 17.3613 5.30559 17.3613 5.43822C17.3613 10.278 17.3613 15.1202 17.3613 19.96C17.3613 21.6673 17.3613 23.3746 17.3613 25.0795C17.3613 25.557 17.4166 25.6125 17.8901 25.6077L17.8877 25.6101Z" fill="white"/>
<path d="M24.6782 44.7571C28.0119 42.799 31.3455 40.8409 34.6768 38.8804C35.0493 38.661 35.059 38.6055 34.8402 38.2245C33.0256 35.08 31.2061 31.9354 29.3963 28.786C29.2353 28.5039 29.0406 28.3809 28.7065 28.3833C25.0363 28.4026 21.3662 28.4099 17.696 28.4195C17.6576 28.4195 17.6191 28.4195 17.5807 28.4195C17.5254 28.4243 17.4677 28.4316 17.4004 28.4388V48.982C17.5734 48.8976 17.7321 48.8325 17.8787 48.7481C20.1476 47.4194 22.4141 46.0883 24.6806 44.7571H24.6782Z" fill="white"/>
<path d="M38.0628 36.9266C40.8461 35.3013 43.6294 33.6736 46.4102 32.0458C49.1767 30.4302 51.9431 28.8145 54.7095 27.194C54.8537 27.1096 54.9763 26.989 55.1494 26.854C49.3041 23.4466 43.5068 20.0657 37.6759 16.668C37.5629 16.8295 37.45 16.9694 37.361 17.1237C36.128 19.2531 34.8974 21.3824 33.6668 23.5117C33.0948 24.5028 32.5204 25.4915 31.9483 26.4802C31.8041 26.7286 31.7536 26.9673 31.9123 27.2398C33.7582 30.4133 35.5968 33.5892 37.4403 36.7627C37.6615 37.1461 37.6855 37.1461 38.0628 36.9242V36.9266Z" fill="white"/>
<path d="M237.934 16.1859C237.516 16.2027 237.093 16.263 236.682 16.3522C234.506 16.8249 232.788 17.8859 231.954 20.0804C231.838 20.3818 231.682 20.6663 231.519 21.0136C231.485 20.8737 231.456 20.8014 231.451 20.729C231.427 20.2685 231.396 19.8079 231.394 19.3449C231.394 18.4671 231.413 17.5917 231.418 16.714C231.418 16.345 231.365 16.292 231.004 16.2944C229.12 16.304 227.238 16.3137 225.354 16.3233C225.289 16.3233 225.224 16.3354 225.154 16.3402V42.1163H231.85V41.7545C231.85 37.6261 231.848 33.5001 231.85 29.3717C231.85 28.3661 231.995 27.3823 232.36 26.4346C233.004 24.7586 234.117 23.6035 235.876 23.1067C237.064 22.7715 238.268 22.6582 239.491 22.6871C239.659 22.692 239.828 22.6871 239.991 22.6871V16.1762C239.292 16.1762 238.609 16.1569 237.927 16.1834L237.934 16.1859Z" fill="white"/>
<path d="M0 25.5374H14.5124V0.547492C14.4883 0.537846 14.4667 0.528201 14.4427 0.518555C9.63085 8.83568 4.81903 17.1528 0 25.5374Z" fill="white"/>
<path d="M0.142123 28.6968C4.90828 36.9368 9.67684 45.1743 14.4454 53.4142C14.4646 53.407 14.4839 53.4022 14.5055 53.395V28.4629H0.113281C0.122895 28.5521 0.108474 28.6389 0.142123 28.6992V28.6968Z" fill="white"/>
<path d="M15.2227 53.5393C15.2299 53.5683 15.2347 53.5972 15.2419 53.6261H43.822C41.3969 49.464 38.9885 45.3331 36.5658 41.1758C29.4418 45.3018 22.3322 49.4206 15.2251 53.5393H15.2227Z" fill="white"/>
<path d="M43.6371 0.374023H15.1988C15.1892 0.400549 15.1795 0.424664 15.1699 0.45119C22.2603 4.5772 29.3482 8.7032 36.4506 12.8364C38.8517 8.67185 41.2384 4.53379 43.6371 0.374023Z" fill="white"/>
<path d="M108.234 42.1207H114.88V16.3398H108.234V42.1207Z" fill="white"/>
<path d="M111.758 5.62354C109.299 5.63559 107.662 7.18857 107.662 9.39506C107.662 11.6425 109.309 13.3161 111.484 13.3474C113.995 13.3836 115.478 11.3001 115.421 9.52286C115.421 7.33326 113.815 5.6163 111.758 5.62595V5.62354Z" fill="white"/>
</g>
<defs>
<clipPath id="clip0_2006_3406">
<rect width="240" height="53.2522" fill="white" transform="translate(0 0.374023)"/>
</clipPath>
</defs>
</svg>
