<svg width="125" height="71" viewBox="0 0 125 71" fill="none" xmlns="http://www.w3.org/2000/svg">
<path opacity="0.04" d="M75.2535 83.7644L90.4626 109.526L30.8935 110L75.2535 83.7644ZM35.3295 9.79885L35.6464 52.3132L60.2028 52.1552L72.2433 30.977L35.3295 9.79885ZM72.5602 79.023L60.2028 58.0029H35.6464L35.9632 100.517L72.5602 79.023ZM113.593 54.6839L77.1546 33.8218L65.1141 55L77.4715 76.0201L113.593 54.6839ZM94.7402 2.84483L79.8479 28.9224L124.525 54.5259L80.1648 80.7615L95.3739 106.681L125 54.5259L94.7402 2.84483ZM89.6705 0L30.1014 0.474138L74.9366 26.0776L89.6705 0ZM0 58.319L30.4183 110L30.1014 58.1609L0 58.319ZM29.6261 0.474138L0 52.6293L30.1014 52.4713L29.6261 0.474138Z" fill="white"/>
</svg>
