<svg width="153" height="122" viewBox="0 0 153 122" fill="none" xmlns="http://www.w3.org/2000/svg">
<path opacity="0.04" d="M124.018 78.8304L149.082 121.22L50.9125 122L124.018 78.8304ZM58.2231 -42.8764L58.7452 27.079L99.2142 26.819L119.057 -8.02874L58.2231 -42.8764ZM119.579 71.0287L99.2142 36.4411H58.7452L59.2674 106.397L119.579 71.0287ZM187.202 30.9799L127.151 -3.34771L107.308 31.5L127.673 66.0876L187.202 30.9799ZM156.132 -54.319L131.589 -11.4095L205.217 30.7198L132.112 73.8894L157.176 116.539L206 30.7198L156.132 -54.319ZM147.777 -59L49.6071 -58.2198L123.496 -16.0905L147.777 -59ZM0 36.9612L50.1293 122L49.6071 36.7011L0 36.9612ZM48.8238 -58.2198L0 27.5991L49.6071 27.3391L48.8238 -58.2198Z" fill="white"/>
</svg>
