<svg width="191" height="160" viewBox="0 0 191 160" fill="none" xmlns="http://www.w3.org/2000/svg">
<path opacity="0.06" d="M72.4043 199.511L108.663 260.871L-33.3498 262L72.4043 199.511ZM-22.7744 23.3391L-22.019 124.601L36.5234 124.224L65.2281 73.7816L-22.7744 23.3391ZM65.9835 188.218L36.5234 138.152H-22.019L-21.2636 239.414L65.9835 188.218ZM163.806 130.247L76.9366 80.5575L48.2319 131L77.692 181.066L163.806 130.247ZM118.861 6.77586L83.3574 68.8879L189.867 129.871L84.1128 192.359L120.371 254.095L191 129.871L118.861 6.77586ZM106.774 0L-35.2383 1.12931L71.6489 62.1121L106.774 0ZM-107 138.905L-34.4829 262L-35.2383 138.529L-107 138.905ZM-36.3714 1.12931L-107 125.353L-35.2383 124.977L-36.3714 1.12931Z" fill="white"/>
</svg>
