<svg width="42" height="37" viewBox="0 0 42 37" fill="none" xmlns="http://www.w3.org/2000/svg">
<path opacity="0.04" d="M25.2852 28.1753L30.3954 36.8405L10.3802 37L25.2852 28.1753ZM11.8707 3.29598L11.9772 17.5963L20.2281 17.5431L24.2738 10.4195L11.8707 3.29598ZM24.3802 26.5805L20.2281 19.5101H11.9772L12.0836 33.8103L24.3802 26.5805ZM38.1673 18.3937L25.924 11.3764L21.8783 18.5L26.0304 25.5704L38.1673 18.3937ZM31.8327 0.956897L26.8289 9.72845L41.8403 18.3405L26.9354 27.1652L32.0456 35.8836L42 18.3405L31.8327 0.956897ZM30.1293 0L10.1141 0.159483L25.1787 8.77155L30.1293 0ZM0 19.6164L10.2205 37L10.1141 19.5632L0 19.6164ZM9.95437 0.159483L0 17.7026L10.1141 17.6494L9.95437 0.159483Z" fill="white"/>
</svg>
