<svg width="32" height="32" viewBox="0 0 32 32" fill="none" xmlns="http://www.w3.org/2000/svg">
<path d="M15.828 19.5364C15.3437 19.5364 14.8913 19.4472 14.4707 19.2688C14.0502 19.0904 13.6806 18.8419 13.362 18.5233C13.0434 18.2047 12.7949 17.8288 12.6165 17.3955C12.4381 16.9622 12.3489 16.5034 12.3489 16.0191C12.3489 15.5348 12.4381 15.0824 12.6165 14.6619C12.7949 14.2413 13.0434 13.8718 13.362 13.5532C13.6806 13.2346 14.0502 12.9861 14.4707 12.8076C14.8913 12.6292 15.3437 12.54 15.828 12.54C16.7965 12.54 17.6185 12.8777 18.2939 13.5532C18.9693 14.2286 19.307 15.0506 19.307 16.0191C19.307 16.5034 19.2178 16.9622 19.0394 17.3955C18.861 17.8288 18.6125 18.2047 18.2939 18.5233C17.9753 18.8419 17.6057 19.0904 17.1852 19.2688C16.7646 19.4472 16.3122 19.5364 15.828 19.5364ZM21.4098 16.0191C21.4098 15.7897 21.3971 15.554 21.3716 15.3118C21.3461 15.0697 21.3078 14.8467 21.2569 14.6428H22.8244V22.3274C22.8244 22.5313 22.7607 22.6969 22.6332 22.8244C22.5058 22.9518 22.3401 23.0155 22.1362 23.0155H9.51971C9.31581 23.0155 9.15014 22.9518 9.0227 22.8244C8.89526 22.6969 8.83154 22.5313 8.83154 22.3274V14.6428H10.399C10.3481 14.8467 10.3098 15.0697 10.2843 15.3118C10.2589 15.554 10.2461 15.7897 10.2461 16.0191C10.2461 16.7838 10.3927 17.5102 10.6858 18.1983C10.9789 18.8865 11.374 19.4855 11.871 19.9952C12.368 20.505 12.9606 20.9064 13.6487 21.1995C14.3369 21.4926 15.0633 21.6392 15.828 21.6392C16.5926 21.6392 17.319 21.4926 18.0072 21.1995C18.6953 20.9064 19.2879 20.505 19.7849 19.9952C20.282 19.4855 20.677 18.8865 20.9701 18.1983C21.2632 17.5102 21.4098 16.7838 21.4098 16.0191ZM15.9809 0C18.1983 0 20.2756 0.42055 22.2127 1.26165C24.1497 2.10275 25.8447 3.24333 27.2975 4.68339C28.7503 6.12346 29.8973 7.81203 30.7383 9.7491C31.5794 11.6862 32 13.7634 32 15.9809C32 18.1983 31.5794 20.2756 30.7383 22.2127C29.8973 24.1497 28.7503 25.8447 27.2975 27.2975C25.8447 28.7503 24.1497 29.8973 22.2127 30.7383C20.2756 31.5794 18.1983 32 15.9809 32C13.7634 32 11.6862 31.5794 9.7491 30.7383C7.81203 29.8973 6.12346 28.7503 4.68339 27.2975C3.24333 25.8447 2.10275 24.1497 1.26165 22.2127C0.42055 20.2756 0 18.1983 0 15.9809C0 13.7634 0.42055 11.6862 1.26165 9.7491C2.10275 7.81203 3.24333 6.12346 4.68339 4.68339C6.12346 3.24333 7.81203 2.10275 9.7491 1.26165C11.6862 0.42055 13.7634 0 15.9809 0ZM24.9271 9.0227C24.9271 8.43648 24.7232 7.93947 24.3154 7.53166C23.9076 7.12385 23.4106 6.91995 22.8244 6.91995H8.83154C8.24532 6.91995 7.74831 7.12385 7.3405 7.53166C6.9327 7.93947 6.72879 8.43648 6.72879 9.0227V23.0155C6.72879 23.6018 6.9327 24.0988 7.3405 24.5066C7.74831 24.9144 8.24532 25.1183 8.83154 25.1183H22.8244C23.4106 25.1183 23.9076 24.9144 24.3154 24.5066C24.7232 24.0988 24.9271 23.6018 24.9271 23.0155V9.0227ZM22.1362 9.0227C22.3401 9.0227 22.5058 9.09279 22.6332 9.23298C22.7607 9.37316 22.8244 9.5452 22.8244 9.7491V11.8519C22.8244 12.0558 22.7607 12.2214 22.6332 12.3489C22.5058 12.4763 22.3401 12.54 22.1362 12.54H20.0335C19.8295 12.54 19.6575 12.4763 19.5173 12.3489C19.3771 12.2214 19.307 12.0558 19.307 11.8519V9.7491C19.307 9.5452 19.3771 9.37316 19.5173 9.23298C19.6575 9.09279 19.8295 9.0227 20.0335 9.0227H22.1362Z" fill="black"/>
</svg>
