<svg width="32" height="32" viewBox="0 0 32 32" fill="none" xmlns="http://www.w3.org/2000/svg">
<path d="M15.9809 0C18.1983 0 20.2756 0.42055 22.2127 1.26165C24.1497 2.10275 25.8447 3.24333 27.2975 4.68339C28.7503 6.12346 29.8973 7.81203 30.7383 9.7491C31.5794 11.6862 32 13.7634 32 15.9809C32 18.1983 31.5794 20.2756 30.7383 22.2127C29.8973 24.1497 28.7503 25.8447 27.2975 27.2975C25.8447 28.7503 24.1497 29.8973 22.2127 30.7383C20.2756 31.5794 18.1983 32 15.9809 32C13.7634 32 11.6862 31.5794 9.7491 30.7383C7.81203 29.8973 6.12346 28.7503 4.68339 27.2975C3.24333 25.8447 2.10275 24.1497 1.26165 22.2127C0.42055 20.2756 0 18.1983 0 15.9809C0 13.7634 0.42055 11.6862 1.26165 9.7491C2.10275 7.81203 3.24333 6.12346 4.68339 4.68339C6.12346 3.24333 7.81203 2.10275 9.7491 1.26165C11.6862 0.42055 13.7634 0 15.9809 0ZM23.9331 12.54C24.6722 11.9793 25.3222 11.3039 25.8829 10.5137C25.5261 10.6667 25.1629 10.7941 24.7933 10.8961C24.4237 10.998 24.035 11.0745 23.6272 11.1254C24.035 10.8706 24.3919 10.5583 24.6977 10.1888C25.0036 9.81919 25.2202 9.41776 25.3477 8.98447C24.9654 9.18837 24.5703 9.37316 24.1625 9.53883C23.7547 9.7045 23.3341 9.82557 22.9008 9.90203C22.544 9.5452 22.1235 9.25209 21.6392 9.0227C21.1549 8.79331 20.6197 8.67861 20.0335 8.67861C19.4982 8.67861 18.9948 8.78057 18.5233 8.98447C18.0518 9.18837 17.644 9.46874 17.2999 9.82557C16.9558 10.1824 16.6818 10.5966 16.4779 11.0681C16.274 11.5396 16.172 12.043 16.172 12.5783C16.172 12.7312 16.1784 12.8841 16.1912 13.037C16.2039 13.19 16.223 13.3301 16.2485 13.4576C14.6428 13.3811 13.1517 12.9861 11.7754 12.2724C10.399 11.5587 9.2266 10.6029 8.25806 9.40502C7.90123 9.99124 7.72282 10.6412 7.72282 11.3548C7.72282 12.0175 7.88212 12.6356 8.20072 13.2091C8.51931 13.7826 8.93349 14.2477 9.44325 14.6045C8.78057 14.5536 8.19434 14.3879 7.68459 14.1075V14.1458C7.68459 15.1143 7.98407 15.949 8.58303 16.6499C9.182 17.3509 9.92752 17.7905 10.8196 17.9689C10.6412 18.0199 10.4691 18.0581 10.3035 18.0836C10.1378 18.1091 9.96575 18.1219 9.78734 18.1219C9.6599 18.1219 9.53883 18.1155 9.42413 18.1027C9.30944 18.09 9.18837 18.0709 9.06093 18.0454C9.31581 18.81 9.76822 19.4472 10.4182 19.957C11.0681 20.4667 11.8264 20.7216 12.693 20.7216C12.0303 21.2569 11.2847 21.671 10.4564 21.9642C9.62804 22.2573 8.76782 22.4038 7.87575 22.4038C7.69733 22.4038 7.53166 22.3975 7.37873 22.3847C7.22581 22.372 7.07288 22.3528 6.91995 22.3274C7.78654 22.8881 8.72322 23.3214 9.72999 23.6272C10.7368 23.9331 11.7881 24.086 12.8841 24.086C14.6683 24.086 16.2485 23.7483 17.6248 23.0729C19.0012 22.3975 20.1545 21.5309 21.0848 20.4731C22.0151 19.4154 22.7224 18.2302 23.2067 16.9176C23.691 15.6049 23.9331 14.3114 23.9331 13.037V12.54Z" fill="black"/>
</svg>
