<svg width="32" height="32" viewBox="0 0 32 32" fill="none" xmlns="http://www.w3.org/2000/svg">
<path d="M23.092 19.5364C23.2959 19.5364 23.4361 19.6002 23.5125 19.7276C23.6145 19.8295 23.6655 20.008 23.6655 20.2628V20.9128H22.5185V20.2628C22.5185 20.0335 22.5567 19.855 22.6332 19.7276C22.7607 19.6002 22.9136 19.5364 23.092 19.5364ZM18.6189 19.5364C18.7973 19.5364 18.9247 19.5874 19.0012 19.6894C19.1031 19.7913 19.1541 19.9442 19.1541 20.1481V23.3596C19.1541 23.5635 19.1159 23.7037 19.0394 23.7802C18.963 23.8821 18.8483 23.9331 18.6953 23.9331C18.5934 23.9331 18.4914 23.9076 18.3895 23.8566C18.262 23.8057 18.1601 23.7292 18.0836 23.6272V19.7658C18.1856 19.6639 18.2748 19.6002 18.3513 19.5747C18.4022 19.5492 18.4914 19.5364 18.6189 19.5364ZM16.0191 0C18.2366 0 20.3138 0.42055 22.2509 1.26165C24.188 2.10275 25.8765 3.24333 27.3166 4.68339C28.7567 6.12346 29.8973 7.81203 30.7383 9.7491C31.5794 11.6862 32 13.7634 32 15.9809C32 18.1983 31.5794 20.2756 30.7383 22.2127C29.8973 24.1497 28.7567 25.8447 27.3166 27.2975C25.8765 28.7503 24.188 29.8973 22.2509 30.7383C20.3138 31.5794 18.2366 32 16.0191 32C13.8017 32 11.7244 31.5794 9.78734 30.7383C7.85026 29.8973 6.15532 28.7503 4.70251 27.2975C3.2497 25.8447 2.10275 24.1497 1.26165 22.2127C0.42055 20.2756 0 18.1983 0 15.9809C0 13.7634 0.42055 11.6862 1.26165 9.7491C2.10275 7.81203 3.2497 6.12346 4.70251 4.68339C6.15532 3.24333 7.85026 2.10275 9.78734 1.26165C11.7244 0.42055 13.8017 0 16.0191 0ZM11.5078 16.4014H6.99642V17.6248H8.52569V24.8124H9.97849V17.6248H11.5078V16.4014ZM11.546 12.4253L13.4576 6.99642H11.7754L10.7814 10.7049H10.6667L9.59618 6.99642H7.95221L9.90203 12.5783V16.2485H11.546V12.4253ZM15.7897 18.6189H14.4898V23.3214C14.4389 23.3978 14.3751 23.4616 14.2987 23.5125L14.0693 23.6655C13.9164 23.7419 13.8017 23.7802 13.7252 23.7802C13.5978 23.7802 13.5086 23.7547 13.4576 23.7037C13.4066 23.6527 13.3811 23.538 13.3811 23.3596V18.6189H12.0812V23.8184C12.0812 24.1752 12.1577 24.4429 12.3106 24.6213C12.4636 24.8252 12.6802 24.9271 12.9606 24.9271C13.19 24.9271 13.4448 24.8507 13.7252 24.6977C13.9546 24.5958 14.2095 24.4046 14.4898 24.1243V24.8124H15.7897V18.6189ZM15.675 16.4014C16.3632 16.4014 16.8857 16.2358 17.2425 15.9044C17.6248 15.5986 17.816 15.1398 17.816 14.5281V11.0108C17.816 10.5265 17.6248 10.1059 17.2425 9.7491C16.8857 9.41776 16.3887 9.25209 15.7515 9.25209C15.0888 9.25209 14.5663 9.40502 14.184 9.71087C13.7762 10.0167 13.5723 10.4373 13.5723 10.9725V14.5281C13.5723 15.1143 13.7634 15.5731 14.1458 15.9044C14.5026 16.2358 15.0123 16.4014 15.675 16.4014ZM20.4922 20.1099C20.4922 19.6002 20.3775 19.2051 20.1481 18.9247C19.9697 18.6699 19.6639 18.5424 19.2306 18.5424C19.0012 18.5424 18.7973 18.5934 18.6189 18.6953C18.415 18.7718 18.2366 18.912 18.0836 19.1159V16.4014H16.7455V24.8124H18.0836V24.3536C18.1601 24.4556 18.2429 24.5384 18.3321 24.6021C18.4213 24.6659 18.5169 24.7232 18.6189 24.7742C18.7973 24.8507 19.0267 24.8889 19.307 24.8889C19.6894 24.8889 19.9825 24.7742 20.1864 24.5448C20.3903 24.2899 20.4922 23.9586 20.4922 23.5508V20.1099ZM20.0335 16.325C20.3393 16.325 20.6197 16.2612 20.8746 16.1338C21.1294 16.0064 21.4098 15.7897 21.7157 15.4839V16.2485H23.1685V9.40502H21.7157V14.6045C21.6137 14.732 21.4608 14.8594 21.2569 14.9869C21.1039 15.0633 20.9765 15.1016 20.8746 15.1016C20.6961 15.1016 20.5942 15.0633 20.5687 14.9869C20.4922 14.9104 20.454 14.7957 20.454 14.6428V9.40502H19.0012V15.1398C19.0012 15.5476 19.0904 15.8407 19.2688 16.0191C19.3963 16.223 19.6511 16.325 20.0335 16.325ZM25.0036 20.3011C25.0036 19.6894 24.8379 19.2306 24.5066 18.9247C24.2007 18.6189 23.7419 18.466 23.1302 18.466C22.544 18.466 22.0725 18.6316 21.7157 18.963C21.3588 19.3198 21.1804 19.7658 21.1804 20.3011V23.0538C21.1804 23.6655 21.3461 24.137 21.6774 24.4683C22.0342 24.8252 22.493 25.0036 23.0538 25.0036C23.691 25.0036 24.1752 24.8379 24.5066 24.5066C24.8379 24.2007 25.0036 23.7164 25.0036 23.0538V22.7479H23.6655V23.0155C23.6655 23.3978 23.6272 23.64 23.5508 23.7419C23.4488 23.8439 23.2959 23.8949 23.092 23.8949C22.8371 23.8949 22.6842 23.8311 22.6332 23.7037C22.5567 23.6018 22.5185 23.3724 22.5185 23.0155V21.8686H25.0036V20.3011ZM15.675 10.4373C15.8534 10.4373 16.0191 10.4755 16.172 10.552C16.274 10.6539 16.325 10.7814 16.325 10.9343V14.6428C16.325 14.8467 16.274 14.9869 16.172 15.0633C16.0701 15.1653 15.9044 15.2162 15.675 15.2162C15.4711 15.2162 15.3309 15.1653 15.2545 15.0633C15.127 14.9869 15.0633 14.8467 15.0633 14.6428V10.9343C15.0633 10.8068 15.127 10.6794 15.2545 10.552C15.3564 10.4755 15.4966 10.4373 15.675 10.4373Z" fill="black"/>
</svg>
